<?xml version="1.0" encoding="utf-8"?>
<!DOCTYPE svg PUBLIC "-//W3C//DTD SVG 1.1//EN" "http://www.w3.org/Graphics/SVG/1.1/DTD/svg11.dtd">
<svg version="1.1" id="Layer_1" xmlns="http://www.w3.org/2000/svg" xmlns:xlink="http://www.w3.org/1999/xlink" x="0px" y="0px"
	 viewBox="0 0 1742.1638 1600" enable-background="new 0 0 1742.1638 1600" xml:space="preserve">
<g>
	<path fill="#007800" d="M1742.0073,200.1681c-0.7507-1.0637-2.1899-1.6268-3.4414-1.314c-1.533,0.4067-1.7522,1.0012-2.9722,1.8146
		c-0.8135,0.5631-1.8772,0.6257-2.7844,0.6884c-1.314,0.1251-1.4705,2.2526-2.4404,2.6279
		c-1.189,0.9387-3.7544,2.6907-5.1934,1.9397c-1.3142-0.657-1.627-2.3777-2.9097-2.8157c-2.8472-1.0012-4.7241,3.6604-8.3223,0.876
		c-1.5955-1.2201-3.0347-1.6581-5.0996-1.2201c-1.314-0.3129-2.7529-0.2816-4.1296,0.1876
		c-1.408,0.4694-2.4717,1.7834-3.8169,2.1902c-2.1899,0.5944-5.7566,0.1564-6.7891-2.1902
		c-0.876-1.9709-1.0325-1.7832-2.7532-2.4402c-1.8459-0.7196-0.8135-3.7544-3.4727-4.8806
		c-4.7244-0.9073-10.5747,3.0347-14.9861,1.0637c-4.2236-1.8772-5.7878-5.6628-9.198-7.54
		c-0.8447-0.438-8.0405-2.3777-8.7603-2.1899c-1.7832,0.4692-3.5039,1.9709-5.3499,1.314
		c-4.9431-1.8146-7.6025-4.0671-10.3557-8.5098c-1.533-2.5342-4.2861,0.2502-7.0393,0.7195
		c-2.4404-2.4402-3.0349-4.0671-6.2886-5.5063c-2.3152-1.0323-1.8459-4.7866-5.0371-5.8503
		c-1.314-0.438-3.6604-0.2817-3.9419-2.0024c-2.7532,0-3.4102-0.9697-4.8806-3.0034c-0.3755-1.9084-0.7822-3.1912-0.7822-5.1935
		c0-0.7821,2.9097-3.5979,1.1262-4.0673c0-6.351,0.6885-6.6638-5.3499-5.1621c0,4.3488-3.7229,3.3164-6.2258,2.7532
		c-2.8472-0.657-2.9409,3.7856-7.759,2.4089c-2.8784-0.782-2.3152,3.0349-3.7229,3.817c-1.7834,0.9698-5.6316-0.5319-7.7903-0.8761
		c-4.6929-0.7821-6.7891,0.5006-10.9189,1.9398c-3.3477,1.1576-3.6604-8.1656-2.7532-9.4171
		c-1.0325-1.3766-1.0012-4.6304-2.7532-6.8829c0-2.6593-4.6616-8.8226-6.8828-9.73c-3.9109-1.5956-7.9468,3.5665-9.386-3.3789
		c-0.563-2.847-2.9094-4.5677-2.9094-7.3834c0-4.9432,4.7866-2.3464,4.7866-6.4137c0.751-0.2504,3.9734-1.0951,3.2224-2.3464
		c0.1565-0.2191-0.438-1.9398-0.4065-2.4403c0.3752-2.9409-1.502-5.6941,2.9407-3.7231c3.6294,1.627,1.4705-3.0659-0.5005-3.5665
		c0-4.3488-4.5364-5.4751-4.5364-9.8864c0-3.8481,2.8157-6.226,4.6929-8.7601c-0.751-1.0011-0.6257-5.0996-1.627-6.7264
		c-1.314-2.1274-3.2849-5.2249-5.2561-6.9456c-5.2246-4.7242-3.0347-8.322-5.6626-13.7034
		c-3.9734-6.9454-13.8911-14.8608-21.4312-16.863c-9.1042-2.4092-17.5828-5.5063-20.8052,4.3799
		c-0.1563,0-0.1877-0.0625-0.2502,0.0626c-0.1565,0-0.5005,0.0626-0.5632-0.0626c-0.1563,0-0.5005-0.125-0.563-0.2502
		l-3.3789-0.0938c-0.313,0.9385-1.8147-1.2515-1.9397-1.5957l-0.9075-2.5342c-0.6257-1.752-0.2815-3.9733-0.8132-5.8191
		c-1.189-4.3176,1.9084-8.854-0.8762-12.4832c-2.5342-3.2852-0.4692-4.4426-1.877-6.7266
		c-0.8135-1.3766-4.5054-0.8135-6.0696-1.7207c-3.5042,0-12.8586,0.657-15.6118-1.4392c-4.4114-3.3789-1.5017-7.7902-8.4785-3.6604
		c-1.4705,0.876-2.1899-0.4692-3.5039-0.4692c-3.4729,0-6.0696,2.0961-8.8853,1.8457c-5.3813-0.438-5.8193,8.0405-8.1033,6.8831
		c-2.3149-1.1576-6.4448-12.1703-7.2896-14.6418c-3.4414,0-7.8528,8.1969-10.5122,1.6895C1420.2302,1.2513,1419.5732,0,1418.5408,0
		c-1.0637,0-2.5342,1.2827-5.6313,2.5968l-7.446,3.2537l-5.2561,2.4091c0,1.2513,2.1899,3.9108,2.1899,5.1935
		c-6.4761,2.1274-9.6672-9.6675-15.7681,0.7195c-1.4705,2.4717-19.3662,11.3882-20.8992,6.8204
		c-1.2202,0-4.0046,4.912-4.5051,6.4137c-1.0325,2.9095-4.4114,2.7218-7.0708,4.3486c-6.1318,3.8169-11.5132-4.5051-15.1111-5.3186
		c-5.7253-1.314,0.3755-5.1934-5.6001-5.1934c-7.54,0-5.5063,4.2549-14.2979,0c-3.9734-0.5945-6.3511,1.5642-9.8862,1.2827
		c-3.7856-0.2816-4.0674,0.5317-7.5088,2.4402c-1.6582,0.9073-2.9097-1.2827-4.3801-1.7832
		c-1.2512-0.438-6.4761-0.7196-7.9465-0.7196c-4.0359,0-5.5376,3.3163-9.198,2.5654c-2.5657-0.5006-3.1914,0.6884-5.4438,1.1576
		c-2.5654,0.9698-3.9421-3.1599-8.0718-1.533c-3.9109,1.5017-5.2249-0.9073-8.9165-0.3442
		c-4.3489,0.657-13.7034,5.6316-18.2085,2.1901c-1.5332-1.1576-2.5654,2.8783-3.3789,3.3163
		c-0.9075,0.5006-15.3616-0.5005-15.9561-0.9698c-2.3777-1.8146-4.7241,3.1599-8.009,1.2201l-1.7834-1.0637
		c-0.7507-0.563-9.8862,2.5342-11.0752,3.4103c-5.7566,4.2235-6.0068,6.1633-13.5156,6.1633c-2.4089,0-3.2849-0.8761-4.8494,1.2201
		c0.4692,0.6257-1.3765,1.0951-1.6267,1.2827c-2.3152-1.752-3.2227-1.6268-5.2561,0.6571
		c-2.5967,2.9095-3.3789-0.0314-5.3499-0.2504c-2.2527-0.219-7.8215,6.3511-7.1333,8.854c1.0325,3.6292,1.5017,4.4426-3.8794,4.4426
		c-6.0696,0-5.5691,3.4414-7.0396,7.2896c-0.7195,1.9086-4.8806,0.313-6.3823,1.2202c-2.7219,1.6895,0.5945,3.3477-5.0056,3.8169
		c-3.0349,0.2502-6.4138,2.6594-6.4138,5.9131c-3.3477,0.8135-10.9814-1.1576-10.9814,1.3766c0,4.3488,3.9109,11.6698-1.22,11.6698
		l-9.7927-6.0071c-6.6013-4.0359-5.1621-1.9084-8.8225,5.1936c-1.2515,2.2212-4.2236,3.1285-4.6304,3.8169
		c-0.438,0.8135,2.2839,2.4089,2.2839,3.8169c0,4.9744-5.6003,1.0011-6.5701,2.9095c-1.5645,3.1599-1.4705,1.3141-3.7856,3.6605
		l-5.1936,5.1621c-5.5376,5.569-3.9731,2.3778-7.5085,7.2897c-1.7207,2.4091,0.219,4.474-3.3164,4.0673
		c-3.6604-0.4067-4.0984,3.5353-6.3198,4.0671c-3.7854,0.8447-0.8447,5.2561-2.8469,5.8192
		c-1.2515,0.3441-3.0659-0.4067-3.0659,1.6895c0,1.1888-0.8447,4.1298-2.1902,4.4739c0,3.5979,3.4414,0.7821,4.3801,2.9095
		c2.0649,4.693,6.0381,2.0337,7.1958,4.693c3.6604,6.1633,6.3823-1.8146,6.3823,6.6639c0,2.6593,4.9119,4.3174,6.1633,5.8191
		c1.6895,2.0649,1.5642,4.4114,3.4102,6.2573c3.2224,3.2224,5.0996,3.6292,1.7834,8.103c2.7532,3.6918,2.8469,2.5342,6.4448,4.5365
		c3.2852,1.8146,1.314,7.7589-2.0022,8.5099c-1.5645,0.344,0.7195,2.5967-2.0337,4.2861c-2.7219,1.6895,3.5354,4.2236,4.8494,4.2236
		c0.0938,0.3441,1.4705,1.095,1.627,1.6895c0.344,0,0.9697,0.4067,1.3765,0.0938c4.7869,3.6293,1.9397,2.3466,1.9397,7.3835
		c0,3.7544,2.1902,4.9119,2.7532,7.54c4.2861,3.4102,3.1599,5.9756-0.563,9.6986c-1.5645,1.5643-7.54,7.6652-7.54,9.73
		c-0.8135,0.219,0.8135,2.0961,0.9697,2.3464c0.5632,0.9073,1.2202,1.6581,1.7209,2.5342c0.876,1.5956,3.5664,2.0336,4.2861,4.0359
		c2.1274,5.9131,7.4148,0.7196,3.7856,8.1969c-2.4404,5.0684-1.8147,3.7544-6.0696,4.9432
		c-2.1274,0.5944-6.2886,6.7578-5.1621,8.8226c0.4067,0.7822,2.1274,5.3812,0.657,5.7566v0.1565
		c-0.4692,0.1252-2.4092,2.1901-2.9409,2.5967c0,9.8552-21.8376,7.6965-22.7136,20.1796c-0.4067,5.8505-3.5979,3.3163-5.2561,7.3835
		c-1.8459,4.5052-6.1633,2.6281-8.9165,7.1332c-3.8169,6.2573-7.8528,1.4705-5.5063,10.9502c2.0022,0-0.751,3.8794-1.2827,4.4426
		c-1.189,1.314-3.0349,2.1899-4.5366,2.7532c-4.8806,1.8772-1.658,8.322-3.1599,10.6372c0,9.949,14.3916,7.0393,11.3257,14.9861
		c-0.9072,2.3777,4.2236,1.1262,4.2236,2.9095c0,1.3766-2.4092,2.0336-2.0337,3.0035c0.657,1.7207,0.751,2.4089-0.7195,3.8794
		c-5.4126,5.4125-0.3755,5.2874-0.751,9.8864c-0.2502,3.4415-0.782,4.1298-2.5654,6.9768l-4.1296,6.5701
		c-2.4092,3.8169,3.3789,5.1622-2.5969,7.2272c-2.1899,0.7507-1.4077,2.3151-3.0034,2.8157
		c-1.6582,0.5319-3.0034-1.408-4.8494,0.2502c-1.658,1.5017-2.8157,2.7532-4.9431,2.0337
		c-1.2827,3.9106-3.7544,2.7844-6.9456,2.4089c-3.4101-0.3755-6.7578,3.5979-11.2629,3.1599
		c-6.1321,0-15.4241-0.9698-20.3672,1.8772c-5.131,2.9409-12.796-2.0337-18.5527-2.0337c-3.7855,0-6.5701-1.3765-10.9187-1.3765
		c-2.8472,0-42.424-17.0197-37.293-3.6292c1.1262,2.9408-3.8169,3.9106-3.8169,8.1655c0,0.219,4.9431,6.6013,5.913,9.1669
		c0.7821,2.0336,3.723,2.8783,3.8795,3.5665c0.5945-0.4066,1.7207,5.6003,1.7207,6.9768c0,2.3152,0.7196,3.8483,2.3464,5.35
		c4.1924,2.4091,6.7266-1.6268,9.7925,0.2504c3.2225,1.9709,4.912-0.2817,5.9757,2.9095c0.5944,1.7833-0.3441,4.5677,0.3129,5.6627
		c1.189,1.9711,5.3499,1.6895,5.3499,3.7231c0,3.7855-3.7855,10.7937-2.6592,13.7031c0.9697,2.5342,7.1958,6.2573,7.1958,7.8529
		c0,4.8492,5.2874,2.2213,5.5063,4.0673c0.1564,1.4077,0.4066,3.0659,2.0022,3.2537c1.5957,0.1565-1.2827,2.8783-0.9698,3.723
		c0.4067,1.0011,2.5656,2.6281,1.7833,3.4103c-1.314,1.314-3.5667,1.7207-3.5667,3.7229c-0.2815,0.0626-0.5005,0-0.7821,0
		c-2.0336,3.5354-15.205,12.8899-18.2085,12.8899c-1.7833-7.1958-10.0428,8.416-11.1691,8.416
		c-2.3152,0-14.2665,3.6292-16.2688,5.0996c-2.8783-2.1274-4.3175-8.2283-10.1055-2.4404
		c-1.8458,1.8459-8.5098,4.1611-11.7634,3.2539c-8.0405-2.2527-13.3279,9.2919-13.3279,17.176
		c0,7.3522,4.7241,8.7913-2.5029,11.6071c-0.9072,1.3141-1.9709,5.5063-3.9734,5.5063c-1.533,0-4.1609,0.5631-4.6929,2.1901
		c-1.5642,4.6929,4.2549,6.1946,5.8192,8.2595c-2.0336,2.7532,0.7196,4.0359,0.7196,5.9131c0,2.7844-2.7844,3.9106-3.7856,6.1633
		c-2.3777,5.3186-4.7241,9.3857-9.8864,13.2026c-14.861,11.1066-0.3129,13.9224-3.9733,26.4993
		c0,2.1274-1.4392,4.2549-0.7822,6.4136c0.3755,1.2827,0.876,2.3464,0.876,3.8169c0,4.0985-2.7844,4.5365-0.8135,9.3858
		c2.3152,5.6628,0.532,10.1993,1.8772,15.7995c0.657,2.847,3.4728,3.504,3.4728,7.8841c0,2.5029-3.066,1.752-3.3163,2.5029
		c-2.8784,0-5.2561,6.6013-8.9791,8.0092c-4.0359,2.3152-1.5017,6.4136-4.2236,8.8539c-3.8169,3.4415-1.3453,3.0974-3.1598,6.6326
		c-0.8447,1.6582-11.1692,11.044-11.9514,11.044c-7.1958,0-3.1912-3.1286-7.6024,2.9722c-2.5342,3.504-9.8551-1.0324-13.2965-1.0324
		c-1.408-4.3488-4.2863-4.5991-7.6025-6.8829c-2.5654-1.8146-0.8761-8.416-1.8459-10.9501
		c-0.2502-0.6257-6.2572-1.7833-7.1333-1.1263c-0.657-0.5319-0.2502,0.3754-1.2827-0.7196l-5.5688-6.2572
		c-0.0625-0.1251-0.8135-1.2515-1.0012-0.7196c-2.6906,0-9.3857,7.54-12.5457,8.6037c0,0.0939,0.0313,0.0626-0.0313,0.0939
		c0,0.0626-0.0313,0.0938,0.0313,0.1251c0,1.0637,8.322,1.4078,9.4485,1.4391c6.6013,0.2816,3.6917,7.1332-0.1877,4.0046
		c-2.3152-1.8459-3.5979-2.6594-6.6327-2.5029c-3.4728,0.1877-4.38-2.2526-8.6975-2.2526c-3.4415,0-12.1703,0.876-13.7032-2.6593
		c-1.189-2.7219-1.3141-4.3801-5.2874-3.1286c-1.5331-0.3129-4.3801-6.9142-5.6628-1.314c-0.5005,2.19-2.0649,6.2885-3.723,7.9467
		c-1.6895,1.6581-4.1298,1.7207-5.1935,4.0672c-1.752,3.8795,0.8135,3.5353-4.4426,5.9756l-10.8562,5.0371
		c-2.0024,0.9073-3.7544-0.3755-5.8193,0.4692c-3.5353,1.4705-9.855,9.073-12.2014,11.4507
		c-4.0673,4.0671-17.3951-3.5979-16.2063,2.7532c-0.4067,1.5643,2.1588,11.8574,4.6304,10.3557
		c2.0649,6.3824,11.1379-0.5944,14.6418,1.1576c5.4126,2.6906,0.9386,10.1367-3.8794,10.5121
		c-5.6002,0.4693-7.0081,4.3175-11.5759,6.1634c-1.9397,0.7822-4.5051-0.4067-6.7264,0.3441
		c-3.0035,0.9699-4.818,3.5667-8.2595,3.7856c-3.0973,0.219-21.7125,4.7867-22.4008,3.8169
		c-1.5331-2.0962-2.6907-1.4079-5.0059-1.8459c-0.7195-0.4067-3.2224-1.4705-3.4102-2.19c-3.2537,0-10.6998,4.0046-12.2329,0.9698
		c-0.7507-1.533-4.0984-0.9386-3.6292-2.19c1.6895-4.3801,1.9397-2.3777,0.97-6.1634c-1.5017,0-1.9711-2.3464-4.693-1.314
		c-1.5956,0.6257-3.6292,1.095-5.35,1.2202c-4.2549,0.3442-10.2617,2.9722-11.3881,7.4774c-1.4704,5.694-6.9455-0.2191-8.4159,3.066
		l-5.0997,11.3569c-3.1912,7.0706-3.2537,6.0069-7.6964,12.9524c-3.9733,6.226-15.5179,8.5724-22.7449,7.1332l-9.3859,41.892
		c-1.5017,3.4415-3.6917,6.7891,0.3442,8.3534c1.1888,0.4693,0.1564,1.3766,0.6257,2.0336
		c-0.7822,1.0637,3.5666,1.1576,3.5666,3.2538c0,3.2224-1.5956,3.4102,1.1263,5.8192c2.2213,1.9711-3.1599,8.4473-1.7833,11.2004
		c1.3453,2.6281-2.0962,5.2874-2.0962,8.5098c0,2.19-1.0637,9.8238-3.2225,10.3557c0,0.219-0.3129,0.876-0.3441,0.9698
		l0.2502,3.5041l-2.9096,2.5029l0.2503,3.723l-3.504,3.0035l14.8296,11.4194l-5.4438,7.8841l-2.2526,0.876l-3.8169,5.256
		l-122.4849,38.1064l-49.0565-6.0695c-5.4125,0-3.9733-1.971-7.1958,2.0023c-0.7822,1.0012-5.6315-0.5632-8.1031,1.3766
		c-2.1274,1.7207-3.8482-0.6883-5.6628,0c-2.1588,0.8447-4.7242,4.6303-6.7891,4.0671c-5.6628-1.5643-3.723-0.6257-8.1656,3.3163
		c-2.7219,2.4403-8.6663-0.9386-8.6663,6.3198c0.0313,0,0.9699,1.9711,1.0637,2.3465c0.1564,0.7821,0.9699,1.095,0,1.8771
		c-1.2202,0.9698-2.7844,1.2515-4.1298,2.3464c-3.1599,2.5029-5.0057-2.9409-8.2595-3.3163l-47.2419-9.1668l-24.6221,2.7532v1.9397
		l-3.7231-1.2827l-86.412,7.9467L0,889.5563l31.4112,39.483l11.9513,12.3893c0.876,1.0324,0.3129,2.2526,0.9698,3.0034
		c0.8134,0.9073,1.8459,0.3755,2.5029,0.9073c4.0672-3.0974,2.7219,4.7554,3.2538,6.132c0.876,2.2839-1.8146,3.7543-2.0336,5.7567
		c-0.0939,0.9073,5.5689,8.1031,6.4763,8.5098c1.4704,0.657,1.4391,8.1343,2.0336,10.4495c1.8771,0,6.0069-1.752,4.7555,2.6906
		c-0.5006,1.8459,2.4716,2.1588,2.6906,4.38c0.3754,3.9108-5.6002,3.2538,0.6257,5.1935c3.0348,0.9073,4.6304,3.5666,5.037,6.8829
		c-0.3441,0.8447-0.1877,1.9085,0.4067,2.6594c-0.5632,0.5631,2.9722,6.6326,3.5666,7.6964
		c2.2839,4.2549,4.0672,9.511,7.6651,12.7334c2.9722,2.6281,5.9131,1.4705,8.3534,5.9131
		c2.3464,4.2861,6.3198,8.7288,10.2618,10.6997c2.2839,1.1577,3.5666,2.4092,5.037,4.693c1.0637,1.6895,6.2572,4.4426,6.2885,4.5365
		c4.6616,0,10.7937,3.5353,16.3626,5.1309l23.5272,6.7266l3.9733,0.5631l6.6326,6.5701l3.0034,0.0626l2.0336,5.9131l8.3221,8.8539
		l21.5874-3.0035l-0.7822,11.2631l-2.6906,17.833l6.8204,28.5328l2.2526,36.4482l-6.3198,13.9536
		c1.4079,1.408,4.6616,4.0673,3.723,6.4763c-1.5643,4.0671-2.7219,1.6581-5.0996,4.0671c1.752,2.3152,9.1981,8.2595,11.0127,2.7532
		c4.4426,1.4705,5.694,3.6917,11.263,1.533c2.5341-1.0011,7.2896-4.0984,9.6987-2.1899c4.2862,3.4102,8.1656-5.4438,12.2954-1.2827
		c1.1888,1.1888,12.7021,5.1934,10.0428,8.7288c7.8215,7.884-5.913,4.5365-5.913,10.9502l0.5631,19.147
		c0.6883,0.97-0.3128,6.7578-0.4067,6.9456c-2.2213,4.0046-8.9791-0.6257-5.5689,8.1969c0.9698,2.5656-0.1564,10.6373,0,10.8563
		c3.3788,5.4437-15.2676,5.8817-16.4252,4.9431c-1.8458-1.4705-13.9222,0.97-17.6453-0.0938
		c-4.0046-1.0951-22.7449,4.5051-22.9952,4.8806c-4.2862,6.7264-19.8666,0.657-22.3383,8.103
		c-3.1286-2.3464-9.8551,0.2815-11.9512,2.9097c-0.5944,1.533,1.4078,3.2224,0.9698,3.5665l-2.1274,3.5665
		c-0.5632,1.0012-5.7567-0.782-2.4091,4.693c1.314,2.1901-1.533,8.2908-1.7833,8.1969c-3.285-1.0325-2.0649,3.0034-3.0035,5.0996
		c-0.4693,1.0637-0.5632,1.9398-1.4391,2.5342c-0.5632,0.3442-2.5342-0.1877-2.5967,0.1565
		c-1.7833-1.3453-6.2885-0.3442-7.6025-2.5342c-2.9722-4.8181-2.0023-1.9397-5.1935-4.1298
		c-4.5052-3.0973-4.7242,4.912-10.1053,6.5074c-2.9722,0.876-7.6964-1.6268-7.6964,3.2225c0,5.1622-3.4102,10.9188-3.9733,16.7067
		c-0.438,4.8181-1.7833,11.8888-0.876,16.4565c0,0.9072-0.657,3.7544,0.5005,3.6292c2.0649-0.1877,3.3163,1.3453,3.3163,3.4102
		c0,0.4694-4.9119,1.627-3.9733,1.9397c-1.5956,2.1588-2.0023,2.0962,0.3129,3.7231c1.752,1.2202-0.2191,2.4403-0.7196,3.9106
		c-0.7509,2.1276,1.9084,6.4451-1.4705,7.9468c-3.5353,1.5642-1.9084,4.0359-6.1321,0.9698
		c-1.1888-0.8761-2.9095-1.6268-2.9095,0.4694c0,2.7844-4.0672,1.4077-4.0672,4.3799c0,2.8784-2.5655,2.5029-2.5655,6.3198
		l-0.9073,35.103l-4.0046,17.176c3.504,0.7195,6.6639,1.8146,10.387,3.1599c10.5121,3.7856-5.8192,13.2339,2.5342,14.1726
		c0.8134,0.0938,10.8875-1.189,11.7322-1.7834c1.752-1.2201-0.5632-3.8169-0.1564-5.4124c0.8134-3.3164,3.1599-2.3152,5.256-3.8795
		c7.0707,0,14.5793,1.5643,20.1483-0.2504c-2.1901-2.9408-10.3557-8.1969-2.1901-10.387
		c7.8528-2.0962,20.8991-4.3486,24.5909,5.9131c1.7833,4.9746-5.5063,2.7844-5.2561,5.5063
		c0.0313,0.4067,3.7231,0.0939,4.3801,0.0939c2.3464,0,5.2874,1.9711,7.1019-0.4066c0.4693-0.5945-1.7207-1.4392-2.19-1.627
		c-3.8795-1.408,0.8134-8.6663,3.723-9.73c2.0336-0.7195,8.3221,0.1565,8.0092-2.9722c-0.5944-6.5701,8.9791-3.8481,13.7659-3.0973
		c5.0058,0.7821,16.0185,0.438,19.9918,1.9397l11.6384,2.0336c1.5018,0.2502,3.1912,1.0325,4.6304,1.5331
		c0.4693,0.1876,4.2862,1.9711,4.5365,0.9698c1.0324,0,4.3174-4.8494,7.5086-3.2224c5.7567-7.7278,32.4437,5.3811,42.2362,3.1599
		c2.3777-0.532-3.285-10.262,3.2537-16.1437c6.5701-5.9131,18.1459-4.5052,25.5607-1.2827
		c3.0347-1.6268,19.4286,0.5319,23.3081,1.5331c1.9189,0.4993,3.7809,0.8696,5.0851,0.6619
		c0.9205,0.2825,1.8733,0.3872,2.8279,0.5144c0.5023,0.0669,0.991,0.1167,1.4775,0.1278c1.6367,1.1952,7.1811,0.1862,8.4113,0.6356
		c7.0081,2.0336,13.7346,3.9733,19.4912,8.5098c8.9165,7.0081,15.1111-7.0706,22.9014,0.7509
		c2.2839,2.2838-1.095,6.6639-0.3129,10.1053c0.0626,0.2816,10.4496-1.8145,11.3256-2.9722
		c-9.4797-3.1599-7.2271-13.2653,1.6895-15.4866c9.5735-2.3777,21.6187-0.7195,31.4112,0.1565
		c4.1611,0.7821,12.4206,2.5654,16.4252,1.533c7.6964-1.9709,3.8482-4.0046,8.3221-8.5098l16.2687,0.4067
		c1.8146,0.0313,3.5041-2.9722,5.6628-1.2827c3.7231,2.8469,7.9467,2.4716,12.2328,3.7856
		c2.6594,0.8447,17.3012-2.3778,19.241-3.9734c7.2271-5.8192,11.2317-2.2213,21.3683-3.066
		c10.5434-2.7845,21.3058-6.226,32.4437-5.6002c4.4426,0.2502,18.6152,3.4728,19.7415,8.103c0.5286,0,1.2179-0.075,1.8613-0.2563
		c0.3699,0.2676,0.8378,0.4392,1.4127,0.4482c-0.6683-0.0105,0.1562,0.2373,0.35,0.3523c0.1328,0.0789,0.2722,0.1458,0.4072,0.2205
		c0.2888,0.283,0.5709,0.5717,0.8601,0.8542c0.0673,1.3673,0.7549,2.8018,2.6486,4.4819
		c6.6326,5.8818,12.4518,7.446,17.8018,16.0498c0.0313,0.2815-0.0939,0.7821,0.1564,0.876c0,5.9756-2.0336,4.9119-3.7231,9.9802
		c-1.0324,3.0974,2.0649,6.0696,0,9.3232c-1.6268,2.5342-1.0637,3.5979-0.4067,6.226c0.6257,2.4091-1.752,2.2838-2.4091,3.9733
		c-1.095,2.6907,2.7219,3.3477-0.0939,6.1633c-2.1587,2.1588-1.6894,3.5042-0.9698,5.6628c2.1901,0,4.0046-1.408,5.9756-2.5029
		c4.4739-2.4402,4.8806,2.9722,10.4495-0.7195c5.4125-3.5979,8.8853,7.2583,13.5156,6.3197
		c9.8551-2.0336,6.6952,4.6304,12.5458,6.0695c3.8169-2.1899,1.9084,3.0348,2.9095,5.2561
		c1.8458,4.1924,7.8215-8.0405,6.3824-0.5631c-0.7197,3.8481-0.1877,9.8239,3.9733,11.2003c0,1.7208-2.4091,2.8158-1.2827,5.0059
		c1.8146,3.5667,4.0359,3.3477,4.0359,8.2595c0,1.9709-0.1877,4.4114,0.4694,6.1633c0.4066,1.095,3.0972,2.5029,3.0972,2.5342
		c2.0337,1.1576,1.1263,8.6975,1.1263,10.9188c-1.3766,3.8795,6.1321,22.9014,8.5099,26.5931
		c3.4414,5.3812,2.8469,9.1981,7.9153,14.2664c2.6281,2.6594,22.4009,17.1448,24.3406,16.7068
		c5.2874-1.2515,9.4797,1.0637,13.7034-0.657c4.3799-1.8146,1.6895-10.8875,4.1923-11.5132
		c1.2201,3.6292,3.4728,6.1633,6.8829,8.2595c3.066,1.9084-2.0023,7.3522,3.1599,8.8539c4.5677-0.438,7.0706,4.0673,9.4484-2.5342
		c0.5631-1.5331,0.0313-8.4159,1.0637-8.6661c0.5631,1.6895,3.1912,1.2513,2.9095,3.8794
		c-0.2502,2.5967-4.2236,9.4484-3.3163,11.1066c1.5956,2.9095,6.0695,3.4415,8.8226,4.0671c0.219,0.0626,0.438,0.0626,0.6257,0.0626
		c1.2827,0,2.1587-0.9386,2.847-1.9711l-0.1564-6.4449c0.7195-1.6895,1.9709-2.0336,2.5029-3.5667
		c0.8134-2.2838-1.3455-4.2549,0.1564-6.9767c0.657-1.1888,2.4091-1.0011,3.4102-3.066c2.7532-5.7566,2.6906-1.314,6.3824-3.1599
		c1.314-0.657,1.314-2.1587,2.2838-3.2537c0.438-0.5007,3.3788-3.1287,3.7855-2.9097l41.6731,0.0938l1.2202-36.5732
		c6.2571-3.5667,8.5098-0.8135,8.5098,6.4136c0,4.1611,2.9409,0.3129,3.4727-1.7833c0.3442-1.314,0.219-2.847,1.3767-3.6605
		l3.1599-2.1899c4.7241-1.189,5.0684,10.7625,9.3857,8.103c4.1611-2.5342,2.5029-6.9768,9.2294-4.7554l9.8551,3.2224
		c5.5063,1.8146,6.1008-6.1946,11.8887-4.1924c4.2236,1.4392,10.606,0.7196,15.4553,0.7196l4.6929,0.5631l8.3535-3.1599
		l14.548,14.1101l29.0647,0.3129l4.9432-4.6304l4.6929-10.7623l13.8284-1.9398l3.4103-3.1598l8.8851-0.2504l6.7266-3.5665
		c1.4392-0.7197,20.8992-9.5736,16.0811,0.0625c-1.2827,2.6281-3.8481,1.6895-2.5654,5.5376
		c2.0649,6.2886-2.4091,6.9143,4.4426,10.4496c5.2874,2.7218,16.0184,2.4716,21.3684,0.0626
		c2.5028-1.1263,9.6987,0.3754,6.6325-3.8795c-3.5666-4.9432,3.4102-4.036,4.4426-6.4762
		c-2.0334-1.7207,4.8181-2.9097,5.7566-2.9097c0.876-0.1877,2.8784,0.657,3.6292,1.189c0.7822-0.5632,2.0649-0.1877,3.0662-1.189
		c1.7832-1.8146,1.5017-3.5979,4.3801-4.0671c6.1321-1.0012,3.3474-6.0696-2.3464-4.6304
		c-11.6072,2.9722-5.5378-6.8203-7.1958-11.5758c-0.9387-2.6281,0.5005-9.1356,2.5027-10.9501
		c1.6895-1.5017,6.7891-4.2236,6.7891-6.5701c-0.125-0.0314-0.0625-0.0626-0.0625-0.219c-3.1287-1.0325-3.9106-6.7578-4.2861-9.5736
		l-11.5759-18.2397l-4.4739-23.9026l-14.454-14.9235l-1.2202-5.7566l-7.3835-7.759l1.1577-1.314v-12.9524l-0.9075-0.8135
		l0.9075-12.4832l-0.1877-4.6302l-2.0962-3.3163l-5.569-0.313l-6.3197,2.8158l-15.3616,1.8772l-12.9524-4.474l-0.4067-4.1296
		l-3.8169-3.7856l-4.1923-5.1309l-8.2595-12.6396l-1.5331-17.0822l5.2561-8.2909l3.7856-9.8862l-1.5331-5.7567l2.9095-8.8226
		l-1.6895-5.5063l1.2828-7.1333l-1.4392-7.9465l-2.847-2.4404l-7.3522-3.3789l-18.9281,2.9097l-9.5422-1.9397l-7.1332-6.9143
		l-21.431-9.073l-3.5665-8.322l2.9095-23.3706l7.446-20.5863l8.1031-5.5063l4.693-5.5063l16.3313-13.9222l9.0729-12.2642
		l7.1019-5.5688l10.8563-28.3765l9.6361-10.9502l7.8528-4.38l7.1019-9.3859l14.3916-2.5967l9.2294,2.8469l0.0939,2.5968
		l8.1031,7.9154l0.6256,11.0439l7.4462,12.1389l13.5156,2.2839l32.7876-15.3927l16.3313-3.4103l30.1912-1.1262l24.2781-9.4797
		l2.8157-19.3035l7.6963-10.6997l15.5493-13.3591l5.4749-7.6339l9.8865-31.8492l10.043-12.8898l10.1992-4.6304l25.2478-15.7994
		l20.3047-8.6663l6.7891-14.986l8.7288-10.5434l9.8865-20.6487l10.825-21.5874l11.0127-40.578l18.709-8.0405l22.7136-6.5701
		l4.6929-5.0996l11.6697-9.4797l-0.3127-9.6361l-3.9109-6.2572l-3.9419-4.1923l8.2283-7.4774l-2.4404-6.4136
		c0.1877-0.5944,0.8135-1.0324,2.2839-1.0324c3.6292,0,3.0659-5.9756,5.3499-6.226c2.1902-0.2502,3.5667,2.0962,4.4426,1.8459
		c1.627-0.438,3.2852-1.6269,2.7532-3.4727c-0.8135-2.9409,2.6907-1.8146,1.8772-5.8505c-0.9385-4.5365,3.2537-2.4716,5.1621-4.0359
		c2.8472-2.3464,5.6941-8.4473,8.0093-9.8239c3.0974-1.8146,5.9131-0.7821,4.2236-7.2896
		c-0.3755-1.3766,3.3789-0.7822,3.6292-2.1901c1.0637-5.6002,3.5354-5.1309,7.1958-8.4159
		c1.9712-1.7833,1.0012-4.6929,4.0671-5.2874c0.6572-0.1252,1.0325-3.8795,1.4392-4.5365c0.6882-1.0637,3.6919-2.7219,3.9734-2.7532
		c7.0393-0.2503,3.9734-1.8771,7.6025-5.6628c4.9431-5.1622,3.7544-2.5342,10.1992-3.0035
		c1.7832-0.1251,3.2849-0.7821,4.4739-1.7833l0.7822-7.0394c-1.408-3.285-3.9109-2.7532-6.7891-1.7833
		c-3.5042,1.1576-4.6616-0.657-8.416,0.3129c-5.4126,1.3766-4.5051-8.9165-3.8169-9.1668c-0.6882-1.4079,2.6907-8.0405,2.8469-9.949
		c0.4695-6.2885-0.6882-6.2572,4.5366-10.5434c1.408-1.1888,1.8145-4.3174,3.7229-6.2572c1.1577-1.1576,3.0349,1.0012,3.4729-0.0626
		c0.657-1.752-3.2539-8.9165-5.0996-9.0729c-3.2224-0.2816-2.5969-2.2839-0.8135-4.3175c3.5354-4.0046-2.0337-4.0046-1.627-6.6326
		c-1.9709-1.971-3.9734-7.2897-5.3186-9.8864c-1.8772-3.5353-6.0068-3.6605,0.0625-8.416
		c4.0674-3.2225,4.0046-14.5793,9.3232-16.6442c2.8472-1.095,2.1589-2.7845,4.0359-3.723c3.0349-1.5018,2.5342-0.4693,5.4126-0.4693
		c0-0.0313,0.2815-0.4693,0.3442-0.5006c0-3.1286,2.5027-1.2827,4.1921-1.2827c0.8762-2.628,4.3489-1.6895,5.8193-2.5967
		c2.5967-1.5643,2.4089-4.9119,3.8794-6.9768c4.7869-3.4102,5.4126-7.3522,11.8262-4.0359
		c1.095,0.5632,10.1367-0.6883,11.8887-0.9698c1.8772-0.3129,4.2236-3.504,5.5063-3.504c3.5979,0,6.6953,4.6929,7.446-2.6593
		c0.1877-1.8146,3.3789,1.4391,4.6304,1.4391c1.0012-4.1611,8.9792-7.8841,6.8516-13.453c-0.876-2.3152,2.0962-2.3777,2.9097-3.0035
		c2.0649,1.533,4.6929-3.2537,3.0974-5.3499c-1.9709-2.5342-6.5076-1.7207-3.3164-5.9756c-2.3152-3.1286-1.9084-3.723-6.1633-5.037
		c-3.4414-1.0637-3.2224-4.1923-6.4761-4.2862c-1.9712,1.5018-1.8459-2.7532-4.0361-2.7532c-2.6279,0-3.7542,2.5967-4.9431-0.7509
		c-2.7219-7.5399-3.2224-3.5979-8.8228-7.0394c-3.1284-1.9397-1.7832,2.8158-5.8191,3.9734
		c-4.0671,1.1576-7.446-2.5029-10.3557-4.1298c-0.5005-0.2816-5.9756-1.8771-6.3823-1.8771
		c-0.9072,2.7532-7.978,3.2224-10.3557,2.5967c-6.0068-1.533-2.3777-3.1287-3.9106-7.0393
		c-0.8135-1.9398-3.2852-2.3464-3.7231-3.6605c-0.4067-1.3141,2.0024-3.6918,1.1577-4.7867
		c-3.2852-4.2236,2.7217-4.1299,2.4089-6.7266c-0.1565-1.3766-2.5967-2.3777-2.8157-4.3488
		c-0.219-1.8146,0.4067-5.694,1.1262-7.1332c0.5317-1.095,3.3789-10.1367,1.2827-9.9177c-0.7822,0.0939-5.2249,3.2224-5.1621,3.3477
		c1.0325,2.7219,2.8469,2.6906,0.3127,5.5063c-1.8772,2.0962-14.0474,3.9106-14.9546,0.1564c-2.5969,0-3.5979-2.3464-4.5366-4.38
		c-0.3127-2.4091-2.2524-8.854-3.3164-11.5759c-0.9697-2.5028-5.3186-1.1262-7.446-2.1899
		c-3.6292-1.8146,1.1577-7.665-1.7832-12.3267c-2.4089-3.7856-10.4182-1.9397-13.5156-6.0696
		c-1.2202,0.5945-2.0334-4.2549-2.3464-4.7867c-4.8494-7.9154-6.6013-7.1332-13.5156-11.92
		c-11.0127-7.6338,8.4473-10.6685,11.2629-16.3c2.2839-3.0347,3.0662-9.6986,3.0662-13.6719c0-3.3164-3.0034-16.738-6.7266-17.0197
		c-2.1587-0.1877-6.6013,0.2504-8.5723-0.5006c-3.1912-1.2202-1.189-5.9756-2.9097-6.5701c0-2.6279-2.8469-6.0382-2.8469-8.8226
		c0-1.2201,3.5039-6.5074,4.3799-7.9467c2.3464-3.285,16.519-9.3232,20.2422-9.3232c0.6257-1.9397,5.9756-3.0974,6.2883-7.2897
		c1.3142-17.3638-18.4275-18.5839-29.5964-13.5469c-7.7903,3.504-9.6362-6.351-7.9468-11.8887
		c1.1577-3.7855,4.7869-5.1622,7.54-7.1332c4.1609-3.0348,2.2524-5.3812,2.2524-9.511c-0.0625-0.876-0.4692-2.2527-1.533-2.2527
		c-0.4692-1.4705-5.4124,0.6571-5.4124-3.8169c0-9.417-4.5679-3.4102-8.5725-3.4102c-1.9084,0-5.6628-2.0022-8.8225-2.0022
		c-0.0627-0.1565-0.094-0.094-0.2505-0.094c-0.0625-0.1564-1.5017-0.4066-1.7832-0.4066c-0.0625-0.2504-0.4067-0.1564-0.4067-0.5631
		c-0.1252-0.0314-0.0313-0.1877-0.1565-0.313c1.7834-2.4089,3.2224-5.9131,5.3501-8.2908c1.9397-2.1587,5.3186-1.3452,7.6023-3.3789
		c2.7847-2.5342,1.3142-4.1296,2.5029-7.0706c1.7522-4.3175,7.6965-7.7903,4.7869-12.5458
		c-1.8147-2.9408,0.8135-6.1947,2.0962-9.3232c1.1262-2.7844,13.3904,1.6582,17.1448,1.3766
		c1.3452-0.0939,12.4204-8.6975,14.0786-10.387c1.0325-0.6257,5.5688-3.8481,6.4136-3.2224
		c4.8806-3.6605,18.4587-0.2816,23.4646,1.7832c5.1621,2.1274,9.3545,7.4148,14.3916,9.1355
		c9.2607,3.2225,18.5527-1.5642,27.0938,4.1299c6.3823,4.2549,20.1482,0.3441,28.5015,1.3765
		c1.3142,0.1252,3.4104,4.5052,6.1321,6.5076c7.0708,5.0996,10.9502,9.1355,21.3684,7.446
		c15.8621-2.5654,21.4937,5.6316,35.4473-3.4727c5.3499-3.5042,11.4819-7.2271,16.0183-11.7637
		c1.314-1.314,2.9409-4.3799,5.0996-4.3799c2.3152,0,4.3176,4.0671,4.1299,4.1296c4.8494,4.8494,5.1934,0.532,10.1992-0.4692
		c7.8528-1.533,4.5364-4.8181,8.979-7.0707c3.5042-1.7521,9.0105-0.8447,12.8586-2.8158c8.322-4.2861,3.4414-8.7913,16.3625-4.1296
		c2.3464,0.8447,11.2942,4.599,12.4519,1.1262c1.3452-4.0984,5.0684-5.0996,6.3198-8.5098
		c2.3464-6.5076-3.1599-11.2004,5.0996-14.2039c2.9097-1.0325,6.6013-4.2863,9.6047-4.2863c1.0325,0,2.6907,1.6582,3.3164,2.4403
		c0.3127,0.3442,1.001,1.0325,1.3765,1.2827c5.9756,4.1611,4.5679-0.657,6.4763-5.5063c1.9709-3.1912,3.6604-4.4426,7.1331-5.4124
		c1.2827-0.3755,2.7219-0.3442,4.0361-0.6571c2.9094-0.6884,4.4424-1.4391,7.0393-3.0973l68.8606-53.4991L1742.0073,200.1681z"/>
	<g>
		<path fill="#FFFFFF" d="M1289.2034,828.0654c-82.8363,73.6323-209.6792,66.171-283.3113-16.6653
			c-73.6324-82.8364-66.171-209.6792,16.6653-283.3115c3.4756-3.0897,7.0352-6.0237,10.6589-8.8282
			C944.9323,547.4741,881,630.1743,881,727.8184c0,120.9069,98.0143,218.9213,218.9213,218.9213
			c88.556,0,164.8254-52.5841,199.303-128.2285C1296.0132,821.7822,1292.6804,824.9745,1289.2034,828.0654z"/>
		<polygon fill="#FFFFFF" points="1236.7426,628.12 1263.545,582.375 1214.973,603.6294 1179.7496,564.0029 1184.9542,616.7653 
			1136.3826,638.0197 1188.1709,649.3743 1193.3755,702.1368 1220.1776,656.3918 1271.9663,667.7465 		"/>
	</g>
</g>
</svg>
